<?xml version="1.0" encoding="UTF-8"?>
<svg width="300px" height="300px" viewBox="0 0 300 300" version="1.1" xmlns="http://www.w3.org/2000/svg" xmlns:xlink="http://www.w3.org/1999/xlink">
    <!-- Generator: Sketch 57.1 (83088) - https://sketch.com -->
    <title>Favicon</title>
    <desc>Created with Sketch.</desc>
    <defs>
        <circle id="path-1" cx="150" cy="150" r="150"></circle>
        <filter x="-2.3%" y="-1.7%" width="104.7%" height="104.7%" filterUnits="objectBoundingBox" id="filter-2">
            <feOffset dx="0" dy="2" in="SourceAlpha" result="shadowOffsetOuter1"></feOffset>
            <feGaussianBlur stdDeviation="2" in="shadowOffsetOuter1" result="shadowBlurOuter1"></feGaussianBlur>
            <feColorMatrix values="0 0 0 0 0   0 0 0 0 0   0 0 0 0 0  0 0 0 0.15 0" type="matrix" in="shadowBlurOuter1"></feColorMatrix>
        </filter>
    </defs>
    <g id="Page-1" stroke="none" stroke-width="1" fill="none" fill-rule="evenodd">
        <g id="Artboard">
            <g id="Favicon">
                <g id="Oval">
                    <use fill="black" fill-opacity="1" filter="url(#filter-2)" xlink:href="#path-1"></use>
                    <use fill="#FFFFFF" fill-rule="evenodd" xlink:href="#path-1"></use>
                </g>
                <g id="up" transform="translate(46.000000, 62.000000)" fill-rule="nonzero">
                    <path d="M18.5861245,171.887336 C16.1620254,175.105462 12.0755232,176.620255 8.12794698,175.763995 C4.18037072,174.907735 1.09701907,171.837745 0.237032421,167.907276 C-0.622954227,163.976807 0.898431784,159.908015 4.130564,157.494421 L66.0829662,95.810496 C70.0979311,91.8920979 76.5235618,91.8920979 80.5385267,95.810496 L114.612348,129.633848 L159.01157,85.4270354 C163.132911,81.960756 169.239684,82.2378185 173.027331,86.0629263 C176.814978,89.8880341 177.006602,95.9716606 173.46713,100.025564 L121.840128,151.428835 C117.825163,155.347233 111.399533,155.347233 107.384568,151.428835 L73.3107465,117.39987 L18.5861245,171.887336 Z" id="Path" fill="#002159"></path>
                    <path d="M151.889545,41.5145881 L128.034823,17.6437 C125.116989,14.6649685 124.264688,10.2276839 125.871086,6.37877216 C127.477484,2.52986039 131.230425,0.0172452971 135.398672,0 L197.628382,0 C203.356468,0 208,4.64667855 208,10.378647 L208,72.6505292 C207.941711,76.8027682 205.415659,80.5205368 201.578397,82.101657 C197.741134,83.6827771 193.331423,82.8228458 190.368249,79.9155821 L166.513527,56.2522669 L121.915568,100.880449 C117.882631,104.836197 111.428239,104.836197 107.395302,100.880449 L73.1689617,66.423341 L18.1993846,121.43017 C15.6433122,124.372481 11.6550444,125.633167 7.87373343,124.694096 C4.09242246,123.755024 1.15598439,120.774619 0.271276336,116.977806 C-0.613431722,113.180994 0.702842555,109.208306 3.67911893,106.692491 L65.9088289,44.4206093 C69.9417654,40.4648619 76.3961581,40.4648619 80.4290946,44.4206093 L114.655435,78.6701445 L151.889545,41.5145881 Z" id="Path" fill="#0967D2"></path>
                </g>
            </g>
        </g>
    </g>
</svg>